<svg width="589" height="140" viewBox="0 0 589 140" fill="none" xmlns="http://www.w3.org/2000/svg">
<path d="M26.161 111V32.301H46.03V111H26.161ZM41.923 81.585V64.824H80.884V81.585H41.923ZM41.923 49.062V32.301H82.66V49.062H41.923ZM81.0921 111L111.617 32.301H130.82L161.012 111H140.255L117.5 44.844H124.715L101.405 111H81.0921ZM99.6291 97.236V81.474H143.03V97.236H99.6291ZM168.38 111V32.301H182.255L188.249 48.396V111H168.38ZM222.659 111L176.705 52.614L182.255 32.301L228.32 90.687L222.659 111ZM222.659 111L217.553 94.461V32.301H237.422V111H222.659ZM270.505 111V32.856H290.374V111H270.505ZM246.418 49.395V32.301H314.461V49.395H246.418ZM308.512 111L339.037 32.301H358.24L388.432 111H367.675L344.92 44.844H352.135L328.825 111H308.512ZM327.049 97.236V81.474H370.45V97.236H327.049ZM419.141 112.221C412.555 112.221 406.82 111.222 401.936 109.224C397.126 107.226 392.723 104.081 388.727 99.789L401.27 87.135C404.008 90.021 406.931 92.241 410.039 93.795C413.147 95.275 416.662 96.015 420.584 96.015C423.914 96.015 426.467 95.46 428.243 94.35C430.093 93.166 431.018 91.575 431.018 89.577C431.018 87.727 430.352 86.21 429.02 85.026C427.688 83.768 425.912 82.695 423.692 81.807C421.546 80.845 419.141 79.957 416.477 79.143C413.887 78.255 411.26 77.219 408.596 76.035C406.006 74.777 403.601 73.26 401.381 71.484C399.235 69.708 397.496 67.488 396.164 64.824C394.832 62.16 394.166 58.867 394.166 54.945C394.166 49.913 395.35 45.621 397.718 42.069C400.16 38.517 403.527 35.779 407.819 33.855C412.111 31.931 417.106 30.969 422.804 30.969C428.502 30.969 433.756 31.931 438.566 33.855C443.376 35.779 447.335 38.443 450.443 41.847L437.789 54.39C435.421 52.022 433.016 50.246 430.574 49.062C428.132 47.878 425.468 47.286 422.582 47.286C419.844 47.286 417.698 47.767 416.144 48.729C414.59 49.691 413.813 51.06 413.813 52.836C413.813 54.612 414.479 56.055 415.811 57.165C417.143 58.275 418.882 59.274 421.028 60.162C423.248 60.976 425.653 61.827 428.243 62.715C430.907 63.603 433.534 64.639 436.124 65.823C438.714 67.007 441.082 68.524 443.228 70.374C445.448 72.224 447.224 74.555 448.556 77.367C449.888 80.179 450.554 83.583 450.554 87.579C450.554 95.423 447.779 101.491 442.229 105.783C436.753 110.075 429.057 112.221 419.141 112.221ZM460.622 111V32.301H480.491V111H460.622ZM488.67 111L519.195 32.301H538.398L568.59 111H547.833L525.078 44.844H532.293L508.983 111H488.67ZM507.207 97.236V81.474H550.608V97.236H507.207Z" fill="black"/>
<path d="M215.855 135L221.495 121.24H222.595L228.175 135H226.595L221.735 122.84H222.315L217.415 135H215.855ZM218.435 131.42V130.12H225.635V131.42H218.435ZM231.468 135V133.7H235.828C236.734 133.7 237.448 133.447 237.968 132.94C238.488 132.433 238.748 131.8 238.748 131.04C238.748 130.547 238.634 130.1 238.408 129.7C238.181 129.3 237.854 128.987 237.428 128.76C237.014 128.52 236.521 128.4 235.948 128.4H231.468V127.12H235.728C236.474 127.12 237.061 126.92 237.488 126.52C237.928 126.12 238.148 125.553 238.148 124.82C238.148 124.087 237.914 123.52 237.448 123.12C236.981 122.72 236.354 122.52 235.568 122.52H231.468V121.24H235.608C236.461 121.24 237.188 121.393 237.788 121.7C238.388 122.007 238.841 122.42 239.148 122.94C239.454 123.46 239.608 124.047 239.608 124.7C239.608 125.473 239.408 126.14 239.008 126.7C238.608 127.247 238.021 127.667 237.248 127.96L237.388 127.48C238.281 127.76 238.974 128.22 239.468 128.86C239.974 129.5 240.228 130.26 240.228 131.14C240.228 131.873 240.048 132.533 239.688 133.12C239.341 133.693 238.828 134.153 238.148 134.5C237.481 134.833 236.674 135 235.728 135H231.468ZM230.528 135V121.24H231.988V135H230.528ZM243.968 135V133.7H248.328C249.234 133.7 249.948 133.447 250.468 132.94C250.988 132.433 251.248 131.8 251.248 131.04C251.248 130.547 251.134 130.1 250.908 129.7C250.681 129.3 250.354 128.987 249.928 128.76C249.514 128.52 249.021 128.4 248.448 128.4H243.968V127.12H248.228C248.974 127.12 249.561 126.92 249.988 126.52C250.428 126.12 250.648 125.553 250.648 124.82C250.648 124.087 250.414 123.52 249.948 123.12C249.481 122.72 248.854 122.52 248.068 122.52H243.968V121.24H248.108C248.961 121.24 249.688 121.393 250.288 121.7C250.888 122.007 251.341 122.42 251.648 122.94C251.954 123.46 252.108 124.047 252.108 124.7C252.108 125.473 251.908 126.14 251.508 126.7C251.108 127.247 250.521 127.667 249.748 127.96L249.888 127.48C250.781 127.76 251.474 128.22 251.968 128.86C252.474 129.5 252.728 130.26 252.728 131.14C252.728 131.873 252.548 132.533 252.188 133.12C251.841 133.693 251.328 134.153 250.648 134.5C249.981 134.833 249.174 135 248.228 135H243.968ZM243.028 135V121.24H244.488V135H243.028ZM255.528 135V121.24H256.988V135H255.528ZM266.728 135.18C265.755 135.18 264.848 135 264.008 134.64C263.168 134.28 262.435 133.78 261.808 133.14C261.181 132.5 260.695 131.753 260.348 130.9C260.001 130.033 259.828 129.1 259.828 128.1C259.828 127.1 260.001 126.173 260.348 125.32C260.708 124.467 261.201 123.72 261.828 123.08C262.455 122.427 263.195 121.92 264.048 121.56C264.901 121.2 265.828 121.02 266.828 121.02C267.935 121.02 268.948 121.24 269.868 121.68C270.801 122.12 271.568 122.74 272.168 123.54L271.148 124.56C270.668 123.88 270.055 123.36 269.308 123C268.561 122.627 267.735 122.44 266.828 122.44C265.748 122.44 264.795 122.687 263.968 123.18C263.141 123.66 262.495 124.327 262.028 125.18C261.575 126.033 261.348 127.013 261.348 128.12C261.348 129.213 261.575 130.187 262.028 131.04C262.495 131.893 263.128 132.567 263.928 133.06C264.741 133.54 265.661 133.78 266.688 133.78C267.715 133.78 268.601 133.573 269.348 133.16C270.108 132.747 270.688 132.147 271.088 131.36C271.501 130.573 271.715 129.627 271.728 128.52L272.568 129.14H266.548V127.8H273.248V128.02C273.248 129.567 272.968 130.873 272.408 131.94C271.861 133.007 271.101 133.813 270.128 134.36C269.155 134.907 268.021 135.18 266.728 135.18ZM275.977 135V121.24H277.437V135H275.977ZM276.937 135V133.66H284.517V135H276.937ZM287.051 135V121.24H288.511V135H287.051ZM291.011 135L296.651 121.24H297.751L303.331 135H301.751L296.891 122.84H297.471L292.571 135H291.011ZM293.591 131.42V130.12H300.791V131.42H293.591ZM305.684 135V121.24H306.724L312.664 130.98H311.924L317.864 121.24H318.904V135H317.424V123.8L317.764 123.88L312.804 132.02H311.764L306.804 123.88L307.144 123.8V135H305.684ZM322.403 135V121.24H323.863V135H322.403ZM323.363 135V133.66H331.463V135H323.363ZM323.363 128.6V127.3H330.823V128.6H323.363ZM323.363 122.58V121.24H331.343V122.58H323.363ZM334.18 135V121.24H335.22L335.64 122.98V135H334.18ZM343.7 135L335 123.2L335.22 121.24L343.9 133.04L343.7 135ZM343.7 135L343.26 133.34V121.24H344.74V135H343.7ZM352.062 135V121.62H353.542V135H352.062ZM347.222 122.58V121.24H358.382V122.58H347.222ZM365.966 135.2C364.993 135.2 364.086 135.02 363.246 134.66C362.419 134.287 361.693 133.78 361.066 133.14C360.439 132.487 359.946 131.733 359.586 130.88C359.239 130.013 359.066 129.087 359.066 128.1C359.066 127.1 359.239 126.173 359.586 125.32C359.933 124.467 360.419 123.72 361.046 123.08C361.673 122.44 362.399 121.94 363.226 121.58C364.053 121.22 364.953 121.04 365.926 121.04C366.899 121.04 367.799 121.22 368.626 121.58C369.466 121.94 370.199 122.44 370.826 123.08C371.453 123.72 371.939 124.473 372.286 125.34C372.633 126.193 372.806 127.12 372.806 128.12C372.806 129.107 372.633 130.033 372.286 130.9C371.939 131.753 371.453 132.5 370.826 133.14C370.213 133.78 369.493 134.287 368.666 134.66C367.839 135.02 366.939 135.2 365.966 135.2ZM365.926 133.78C366.966 133.78 367.886 133.533 368.686 133.04C369.499 132.547 370.133 131.873 370.586 131.02C371.053 130.167 371.286 129.193 371.286 128.1C371.286 127.287 371.153 126.54 370.886 125.86C370.619 125.167 370.246 124.567 369.766 124.06C369.286 123.54 368.719 123.14 368.066 122.86C367.426 122.58 366.713 122.44 365.926 122.44C364.899 122.44 363.979 122.687 363.166 123.18C362.366 123.66 361.733 124.327 361.266 125.18C360.813 126.033 360.586 127.007 360.586 128.1C360.586 128.913 360.719 129.667 360.986 130.36C361.253 131.053 361.626 131.66 362.106 132.18C362.586 132.687 363.153 133.08 363.806 133.36C364.459 133.64 365.166 133.78 365.926 133.78Z" fill="black"/>
<path fill-rule="evenodd" clip-rule="evenodd" d="M11 17H578V124H397V135H578H589V124V17V6H578H11H0V17V124V135H11H192V124H11V17Z" fill="black"/>
</svg>
