<svg width="277" height="169" viewBox="0 0 277 169" fill="none" xmlns="http://www.w3.org/2000/svg">
<path d="M99.7362 126.61C95.6292 126.61 92.0217 125.962 88.9137 124.667C85.8057 123.335 83.1047 121.54 80.8107 119.283L71.8197 126.11H69.8217V99.9695H72.0417C73.0407 103.003 74.2987 105.982 75.8157 108.905C77.3697 111.791 79.2197 114.399 81.3657 116.73C83.5117 119.061 86.0277 120.93 88.9137 122.336C91.7997 123.705 95.1482 124.389 98.9592 124.389C102.474 124.389 105.508 123.76 108.061 122.502C110.614 121.244 112.575 119.487 113.944 117.23C115.313 114.936 115.998 112.253 115.998 109.182C115.998 106.185 115.184 103.669 113.556 101.634C111.965 99.5995 109.837 97.8605 107.173 96.4175C104.546 94.9375 101.642 93.55 98.4597 92.255C95.2777 90.923 92.0957 89.4985 88.9137 87.9815C85.7687 86.4645 82.8642 84.633 80.2002 82.487C77.5362 80.304 75.3902 77.64 73.7622 74.495C72.1712 71.313 71.3757 67.428 71.3757 62.84C71.3757 58.215 72.5227 54.256 74.8167 50.963C77.1107 47.633 80.1447 45.08 83.9187 43.304C87.6927 41.528 91.7442 40.64 96.0732 40.64C99.3662 40.64 102.419 41.1765 105.231 42.2495C108.08 43.2855 110.614 44.821 112.834 46.856L121.659 40.64H123.49V65.6705H121.326C119.846 60.9715 117.959 56.9385 115.665 53.5715C113.408 50.1675 110.707 47.559 107.562 45.746C104.454 43.896 100.902 42.971 96.9057 42.971C92.5027 42.971 89.1172 44.081 86.7492 46.301C84.3812 48.521 83.1972 51.444 83.1972 55.07C83.1972 57.771 83.9927 60.065 85.5837 61.952C87.1747 63.802 89.2837 65.4485 91.9107 66.8915C94.5377 68.3345 97.4237 69.7405 100.569 71.1095C103.751 72.4415 106.914 73.9215 110.059 75.5495C113.204 77.1405 116.09 79.0645 118.717 81.3215C121.344 83.5415 123.453 86.261 125.044 89.48C126.635 92.662 127.431 96.547 127.431 101.135C127.431 106.315 126.21 110.81 123.768 114.621C121.326 118.432 118.014 121.392 113.833 123.501C109.652 125.574 104.953 126.61 99.7362 126.61ZM134.198 125V122.835H170.884C173.881 122.835 176.545 122.003 178.876 120.338C181.244 118.636 183.094 116.212 184.426 113.067C185.758 109.885 186.424 106.093 186.424 101.69C186.424 97.287 185.758 93.7535 184.426 91.0895C183.094 88.3885 181.244 86.4275 178.876 85.2065C176.545 83.9855 173.881 83.375 170.884 83.375H158.674V81.932H174.269C180.041 81.932 185.258 82.598 189.92 83.93C194.619 85.262 198.356 87.445 201.131 90.479C203.906 93.513 205.294 97.62 205.294 102.8C205.294 110.866 202.556 116.582 197.08 119.949C191.641 123.316 184.037 125 174.269 125H134.198ZM144.244 124.001V42.749H161.504V124.001H144.244ZM158.674 82.598V81.155H169.774C172.401 81.155 174.806 80.6 176.989 79.49C179.209 78.38 180.966 76.53 182.261 73.94C183.593 71.35 184.259 67.8535 184.259 63.4505C184.259 59.0475 183.593 55.403 182.261 52.517C180.966 49.631 179.209 47.485 176.989 46.079C174.806 44.636 172.401 43.9145 169.774 43.9145H134.198V41.75H172.049C181.262 41.75 188.551 43.378 193.916 46.634C199.318 49.853 202.019 55.07 202.019 62.285C202.019 69.204 199.466 74.3285 194.36 77.6585C189.254 80.9515 181.817 82.598 172.049 82.598H158.674Z" fill="#DCDCDC"/>
<path d="M42.5164 138.006H45.3465C46.5952 138.006 47.534 138.193 48.1629 138.566C48.7918 138.94 49.1062 139.576 49.1062 140.474C49.1062 140.861 49.0311 141.21 48.8807 141.52C48.7348 141.825 48.5206 142.078 48.2381 142.278C47.9555 142.479 47.6069 142.618 47.1922 142.695V142.764C47.6297 142.832 48.0171 142.957 48.3543 143.14C48.6915 143.322 48.9559 143.577 49.1473 143.905C49.3387 144.233 49.4344 144.65 49.4344 145.156C49.4344 145.771 49.2908 146.291 49.0037 146.715C48.7212 147.139 48.3201 147.46 47.8006 147.679C47.2811 147.893 46.6658 148 45.9549 148H42.5164V138.006ZM43.6785 142.292H45.5926C46.463 142.292 47.0646 142.148 47.3973 141.861C47.7345 141.574 47.9031 141.155 47.9031 140.604C47.9031 140.034 47.7026 139.624 47.3016 139.373C46.9051 139.122 46.2716 138.997 45.4012 138.997H43.6785V142.292ZM43.6785 143.27V147.009H45.7566C46.6453 147.009 47.2742 146.836 47.6434 146.489C48.0125 146.138 48.1971 145.667 48.1971 145.074C48.1971 144.696 48.1128 144.372 47.9441 144.104C47.7801 143.835 47.5112 143.63 47.1375 143.488C46.7684 143.342 46.2739 143.27 45.6541 143.27H43.6785ZM61.4716 148H55.9072V138.006H61.4716V139.031H57.0693V142.265H61.2187V143.276H57.0693V146.975H61.4716V148ZM74.295 148L73.0646 144.828H69.0587L67.8351 148H66.6593L70.5695 137.965H71.6153L75.4982 148H74.295ZM72.7159 143.796L71.547 140.645C71.5196 140.562 71.4741 140.428 71.4103 140.241C71.351 140.054 71.2895 139.861 71.2257 139.66C71.1619 139.46 71.1095 139.298 71.0685 139.175C71.0229 139.362 70.9728 139.549 70.9181 139.735C70.868 139.918 70.8178 140.089 70.7677 140.248C70.7176 140.403 70.6743 140.535 70.6378 140.645L69.4484 143.796H72.7159ZM88.7864 138.006V144.473C88.7864 145.179 88.6428 145.808 88.3557 146.359C88.0732 146.911 87.6448 147.346 87.0706 147.665C86.4964 147.979 85.7763 148.137 84.9104 148.137C83.6754 148.137 82.7343 147.802 82.0872 147.132C81.4446 146.462 81.1233 145.566 81.1233 144.445V138.006H82.2923V144.479C82.2923 145.327 82.5156 145.981 82.9622 146.441C83.4134 146.902 84.0856 147.132 84.9788 147.132C85.5895 147.132 86.0885 147.022 86.4759 146.804C86.8678 146.58 87.1572 146.271 87.344 145.874C87.5354 145.473 87.6311 145.01 87.6311 144.486V138.006H88.7864ZM98.8481 148H97.6791V139.031H94.5346V138.006H101.979V139.031H98.8481V148ZM110.379 143.017L113.039 138.006H114.29L110.961 144.124V148H109.798V144.179L106.462 138.006H107.734L110.379 143.017ZM134.249 148L133.018 144.828H129.013L127.789 148H126.613L130.523 137.965H131.569L135.452 148H134.249ZM132.67 143.796L131.501 140.645C131.474 140.562 131.428 140.428 131.364 140.241C131.305 140.054 131.243 139.861 131.18 139.66C131.116 139.46 131.063 139.298 131.022 139.175C130.977 139.362 130.927 139.549 130.872 139.735C130.822 139.918 130.772 140.089 130.722 140.248C130.671 140.403 130.628 140.535 130.592 140.645L129.402 143.796H132.67ZM148.993 148H147.653L142.205 139.605H142.15C142.164 139.829 142.18 140.084 142.198 140.371C142.217 140.654 142.23 140.957 142.239 141.28C142.253 141.599 142.26 141.925 142.26 142.258V148H141.18V138.006H142.513L147.941 146.373H147.988C147.979 146.214 147.968 145.988 147.954 145.696C147.941 145.4 147.927 145.083 147.913 144.746C147.904 144.404 147.899 144.088 147.899 143.796V138.006H148.993V148ZM163.997 142.907C163.997 144.033 163.792 144.974 163.382 145.73C162.972 146.482 162.377 147.05 161.598 147.433C160.823 147.811 159.882 148 158.775 148H156.061V138.006H159.075C160.092 138.006 160.967 138.193 161.7 138.566C162.434 138.936 162.999 139.485 163.396 140.214C163.797 140.938 163.997 141.836 163.997 142.907ZM162.774 142.948C162.774 142.05 162.623 141.31 162.322 140.727C162.026 140.143 161.589 139.71 161.01 139.428C160.436 139.141 159.732 138.997 158.898 138.997H157.223V147.002H158.638C160.014 147.002 161.046 146.662 161.735 145.983C162.427 145.304 162.774 144.293 162.774 142.948ZM184.175 145.341C184.175 145.933 184.027 146.439 183.731 146.858C183.439 147.273 183.029 147.59 182.501 147.809C181.972 148.027 181.35 148.137 180.634 148.137C180.256 148.137 179.898 148.118 179.561 148.082C179.224 148.046 178.914 147.993 178.631 147.925C178.349 147.856 178.1 147.772 177.886 147.672V146.558C178.228 146.699 178.645 146.831 179.137 146.954C179.629 147.073 180.144 147.132 180.682 147.132C181.183 147.132 181.607 147.066 181.954 146.934C182.3 146.797 182.562 146.603 182.74 146.353C182.922 146.097 183.013 145.792 183.013 145.437C183.013 145.095 182.938 144.81 182.788 144.582C182.637 144.35 182.387 144.14 182.036 143.953C181.689 143.762 181.215 143.559 180.614 143.345C180.19 143.194 179.816 143.03 179.493 142.853C179.169 142.67 178.898 142.465 178.679 142.237C178.461 142.009 178.294 141.745 178.18 141.444C178.071 141.144 178.016 140.799 178.016 140.412C178.016 139.879 178.151 139.423 178.419 139.045C178.693 138.662 179.069 138.37 179.547 138.17C180.03 137.965 180.584 137.862 181.209 137.862C181.742 137.862 182.234 137.912 182.685 138.013C183.141 138.113 183.558 138.247 183.936 138.416L183.574 139.414C183.214 139.264 182.831 139.138 182.425 139.038C182.024 138.938 181.61 138.888 181.181 138.888C180.753 138.888 180.391 138.951 180.094 139.079C179.803 139.202 179.579 139.378 179.424 139.605C179.269 139.833 179.192 140.104 179.192 140.419C179.192 140.77 179.265 141.062 179.411 141.294C179.561 141.526 179.798 141.734 180.122 141.916C180.45 142.094 180.883 142.281 181.42 142.477C182.008 142.691 182.507 142.919 182.918 143.16C183.328 143.397 183.64 143.689 183.854 144.035C184.068 144.377 184.175 144.812 184.175 145.341ZM193.629 148H192.46V139.031H189.315V138.006H196.759V139.031H193.629V148ZM205.16 143.017L207.819 138.006H209.07L205.741 144.124V148H204.579V144.179L201.243 138.006H202.515L205.16 143.017ZM214.784 148V138.006H215.946V146.961H220.383V148H214.784ZM232.003 148H226.439V138.006H232.003V139.031H227.601V142.265H231.75V143.276H227.601V146.975H232.003V148Z" fill="black"/>
<path d="M32.6455 58.118C33.4029 58.118 34.2549 58.1653 35.2015 58.26C38.7042 58.7333 41.4495 60.1533 43.4375 62.52C46.8455 66.9693 47.6975 72.034 45.9935 77.714C45.7095 78.4713 45.4255 79.134 45.1415 79.702C44.3842 81.406 43.4849 82.116 42.4435 81.832C41.4969 81.3587 41.3075 80.4593 41.8755 79.134C43.7689 74.4953 44.1002 70.2827 42.8695 66.496C42.1122 63.4667 40.0295 61.4787 36.6215 60.532C36.4322 60.4373 36.2902 60.39 36.1955 60.39C32.4089 59.538 27.9122 60.248 22.7055 62.52C15.7002 65.5493 11.1562 69.9513 9.07353 75.726C7.4642 80.1753 8.1742 84.814 11.2035 89.642C13.4755 92.9553 17.7355 97.168 23.9835 102.28C27.2022 104.931 29.5689 106.966 31.0835 108.386C34.4915 105.073 37.7102 102.233 40.7395 99.866C45.2835 96.6473 49.0702 94.2333 52.0995 92.624C54.4662 91.6773 55.6969 91.1567 55.7915 91.062C56.2649 90.9673 56.5489 91.204 56.6435 91.772C56.5489 92.056 56.4069 92.2927 56.2175 92.482C45.5202 98.446 37.5682 104.173 32.3615 109.664C33.9709 111.463 35.2489 113.025 36.1955 114.35C39.5089 118.989 40.2189 124.195 38.3255 129.97C37.4735 132.147 36.3375 134.088 34.9175 135.792C32.1722 139.2 29.0009 140.667 25.4035 140.194C23.8889 140.099 22.4215 139.295 21.0015 137.78C19.0135 135.603 18.3982 132.479 19.1555 128.408C20.1969 123.201 23.2735 117.521 28.3855 111.368C26.8709 109.853 24.5042 107.771 21.2855 105.12C17.1202 101.712 14.1382 99.014 12.3395 97.026C8.07953 92.482 5.71286 87.7487 5.23953 82.826C4.86086 77.9033 6.4702 73.3593 10.0675 69.194C16.0315 62.4727 23.3209 58.828 31.9355 58.26C32.2195 58.26 32.4562 58.2127 32.6455 58.118ZM29.9475 112.788L29.6635 112.646C25.4035 117.853 22.6109 122.633 21.2855 126.988C20.4335 130.491 20.5282 133.189 21.5695 135.082C22.6109 136.881 24.2202 137.543 26.3975 137.07C26.5869 137.07 26.7289 137.07 26.8235 137.07C30.8942 135.366 33.5922 132.289 34.9175 127.84C35.2015 126.609 35.3435 125.473 35.3435 124.432C35.4382 120.551 33.6395 116.669 29.9475 112.788ZM75.1701 80.27C75.5488 80.3647 75.8801 80.6013 76.1641 80.98C76.1641 81.6427 76.0694 84.388 75.8801 89.216C75.8801 89.8787 75.8801 90.4467 75.8801 90.92C75.8801 91.204 76.0221 91.062 76.3061 90.494C76.5901 89.926 76.7321 89.642 76.7321 89.642C78.8148 86.1393 80.8028 84.0093 82.6961 83.252C84.3054 82.684 85.5361 83.11 86.3881 84.53C86.4828 84.6247 86.5774 84.7193 86.6721 84.814C87.1454 85.95 87.0508 86.7073 86.3881 87.086C85.9148 87.086 85.4414 86.5653 84.9681 85.524C84.4948 84.8613 84.0214 84.53 83.5481 84.53C82.5068 84.814 81.3234 85.808 79.9981 87.512C78.4834 89.6893 77.2054 92.4347 76.1641 95.748C75.9748 96.2213 75.6434 97.9727 75.1701 101.002C74.6021 102.422 74.1288 103.227 73.7501 103.416C72.8034 103.605 72.1408 102.943 71.7621 101.428C71.7621 101.239 71.7621 101.097 71.7621 101.002C71.6674 100.529 71.7148 97.2153 71.9041 91.062C71.9988 90.494 72.0461 90.0207 72.0461 89.642C71.6674 90.21 71.1468 91.1093 70.4841 92.34C69.0641 94.896 67.8808 96.6947 66.9341 97.736C65.7034 98.9667 64.5201 99.2507 63.3841 98.588C62.7214 97.6413 62.4374 95.89 62.5321 93.334C62.2481 93.7127 61.7748 94.328 61.1121 95.18C60.5441 96.032 60.1181 96.6473 59.8341 97.026C58.1301 99.014 56.7574 100.103 55.7161 100.292C54.4854 100.481 53.6334 99.9133 53.1601 98.588C53.1601 98.3987 53.1128 98.2567 53.0181 98.162C52.8288 95.7007 53.5388 93.0027 55.1481 90.068C56.9468 87.228 58.6981 85.5713 60.4021 85.098C61.8221 84.6247 62.8634 85.1927 63.5261 86.802C63.7154 87.086 63.8101 87.3227 63.8101 87.512C63.8101 88.08 63.9521 88.364 64.2361 88.364C64.3308 88.2693 64.4254 88.1747 64.5201 88.08C65.0881 87.6067 65.5141 87.7013 65.7981 88.364C65.8928 88.5533 65.9401 88.6953 65.9401 88.79C65.4668 92.6713 65.2774 95.2747 65.3721 96.6C66.7921 95.2747 68.0228 93.76 69.0641 92.056C71.5254 87.512 72.9928 84.388 73.4661 82.684C74.0341 81.3587 74.4601 80.6013 74.7441 80.412C74.9334 80.412 75.0754 80.3647 75.1701 80.27ZM61.5381 87.654C61.3488 87.7487 61.1594 87.8433 60.9701 87.938C59.0768 90.21 57.7514 92.8133 56.9941 95.748C56.8994 96.6 56.8521 97.026 56.8521 97.026C57.0414 96.8367 57.1834 96.6947 57.2781 96.6C58.4141 95.748 59.8341 94.1387 61.5381 91.772C61.5381 91.6773 61.6801 91.488 61.9641 91.204C62.3428 90.7307 62.5794 90.352 62.6741 90.068C62.6741 89.8787 62.6268 89.642 62.5321 89.358C62.2481 88.4113 61.9168 87.8433 61.5381 87.654ZM99.7794 83.394C101.767 83.394 103.187 84.246 104.039 85.95C104.513 85.95 104.939 86.1393 105.317 86.518C105.696 87.4647 105.459 89.1687 104.607 91.63C104.418 92.2927 104.323 92.766 104.323 93.05C103.945 94.5647 104.371 95.5587 105.601 96.032C107.305 96.1267 109.246 95.322 111.423 93.618C111.897 93.2393 112.607 92.624 113.553 91.772C114.405 91.0147 115.021 90.4467 115.399 90.068C116.157 89.5 116.677 89.5 116.961 90.068C116.961 90.2573 116.914 90.4467 116.819 90.636C113.222 94.4227 110.713 96.8367 109.293 97.878C106.832 99.6767 104.702 100.055 102.903 99.014C101.01 97.878 100.205 95.8427 100.489 92.908C96.9867 97.9253 94.4307 101.191 92.8214 102.706C92.348 103.085 91.922 103.416 91.5434 103.7C89.2714 105.12 87.5674 105.641 86.4314 105.262C85.106 104.505 84.4907 102.99 84.5854 100.718C85.248 96.5527 87.6147 92.2927 91.6854 87.938C94.62 85.0033 97.318 83.4887 99.7794 83.394ZM100.631 86.944C100.347 87.0387 100.158 87.086 100.063 87.086C98.0754 87.654 96.0874 88.932 94.0994 90.92C91.07 94.1387 89.1767 97.3573 88.4194 100.576C88.23 101.333 88.4194 101.759 88.9874 101.854C90.9754 101.097 93.4367 99.0613 96.3714 95.748C96.6554 95.2747 97.176 94.612 97.9334 93.76C99.732 91.5827 100.915 89.8787 101.483 88.648C101.957 88.08 101.862 87.6067 101.199 87.228C100.915 87.1333 100.726 87.0387 100.631 86.944ZM175.168 28.724C175.736 28.724 176.02 29.008 176.02 29.576C176.02 29.7653 175.973 29.9073 175.878 30.002C175.783 30.0967 175.641 30.2387 175.452 30.428C174.979 30.996 174.695 31.3747 174.6 31.564C171.571 36.2973 168.825 42.2613 166.364 49.456C163.051 59.4907 161.015 69.9987 160.258 80.98C160.163 81.832 160.211 82.3053 160.4 82.4C160.589 82.2107 160.731 82.0687 160.826 81.974C161.11 80.7433 161.631 78.9447 162.388 76.578C163.524 72.602 164.423 69.6673 165.086 67.774C169.535 54.2367 174.837 43.9653 180.99 36.96C184.871 32.7947 188.137 30.3333 190.788 29.576C190.977 29.4813 191.072 29.434 191.072 29.434C193.344 28.582 195.285 29.0553 196.894 30.854C197.083 31.138 197.273 31.422 197.462 31.706C198.503 34.0727 198.361 37.0547 197.036 40.652C194.007 47.8467 188.516 55.1833 180.564 62.662C183.215 62.378 185.25 62.236 186.67 62.236C190.457 62.4253 193.77 63.7033 196.61 66.07C201.627 70.33 204.183 75.868 204.278 82.684C204.278 82.8733 204.278 83.0153 204.278 83.11C204.278 89.1687 202.195 94.7067 198.03 99.724C191.403 107.392 183.025 111.936 172.896 113.356C171.192 113.545 169.583 113.64 168.068 113.64C160.021 113.64 153.347 111.699 148.046 107.818C144.827 105.641 143.265 102.611 143.36 98.73C143.455 97.4993 143.691 96.4107 144.07 95.464C145.869 91.772 149.277 89.2633 154.294 87.938C154.483 87.8433 154.815 87.7487 155.288 87.654C156.045 87.4647 156.566 87.228 156.85 86.944C156.85 79.1813 157.607 71.5133 159.122 63.94C162.057 50.4973 166.033 39.9893 171.05 32.416C172.47 30.428 173.559 29.292 174.316 29.008C174.6 28.9133 174.884 28.8187 175.168 28.724ZM192.634 31.28C191.309 31.3747 190.031 31.8007 188.8 32.558C184.824 35.2087 181.132 39.1373 177.724 44.344C172.423 52.7693 167.973 63.8927 164.376 77.714C163.051 83.2047 162.341 86.2813 162.246 86.944C162.435 87.0387 162.814 87.086 163.382 87.086C164.423 87.086 165.133 87.1333 165.512 87.228C166.553 87.3227 167.547 87.7013 168.494 88.364C168.967 88.648 168.967 88.8847 168.494 89.074C168.305 89.1687 168.163 89.216 168.068 89.216C167.5 89.4053 165.701 89.4527 162.672 89.358C162.199 89.358 161.867 89.358 161.678 89.358C161.489 89.8313 161.299 90.5413 161.11 91.488C160.826 92.8133 160.589 93.8073 160.4 94.47C160.4 95.322 159.974 95.7953 159.122 95.89C158.649 95.89 158.27 95.7953 157.986 95.606C157.418 94.9433 157.039 93.2867 156.85 90.636C156.85 90.2573 156.85 90.0207 156.85 89.926C152.117 90.8727 148.803 92.7187 146.91 95.464C145.206 97.8307 145.253 100.387 147.052 103.132C147.336 103.511 147.573 103.795 147.762 103.984C150.886 107.013 155.335 108.954 161.11 109.806C171.239 111.226 180.564 108.859 189.084 102.706C190.125 101.949 191.119 101.144 192.066 100.292C197.841 95.3693 200.87 89.5 201.154 82.684C201.154 82.2107 201.154 81.7847 201.154 81.406C200.586 74.6847 197.983 69.6673 193.344 66.354C189.936 64.1767 185.581 63.7507 180.28 65.076C179.901 65.1707 179.333 65.3127 178.576 65.502C177.061 65.8807 175.973 66.07 175.31 66.07C174.269 65.786 174.032 65.0287 174.6 63.798C174.789 63.514 174.931 63.3247 175.026 63.23C181.747 56.698 186.339 51.728 188.8 48.32C192.587 42.7347 194.717 38.3327 195.19 35.114C195.663 33.694 195.237 32.558 193.912 31.706C193.439 31.422 193.013 31.28 192.634 31.28ZM232.953 73.028C234.657 72.8387 235.746 73.5487 236.219 75.158C236.219 75.442 236.219 75.6787 236.219 75.868C236.409 78.5187 235.083 81.1693 232.243 83.82C230.161 85.3347 228.551 86.4233 227.415 87.086C227.226 89.642 227.463 92.482 228.125 95.606C228.315 95.5113 228.551 95.322 228.835 95.038C229.403 94.47 229.829 94.044 230.113 93.76C234.279 90.636 238.349 88.6007 242.325 87.654C243.745 87.4647 244.739 87.654 245.307 88.222C245.023 88.79 244.597 89.1687 244.029 89.358C239.675 90.3047 235.888 92.0087 232.669 94.47C231.344 95.4167 230.019 96.6 228.693 98.02C229.735 102.848 230.35 105.972 230.539 107.392C230.729 110.705 230.539 112.883 229.971 113.924C229.214 115.723 227.841 116.48 225.853 116.196C225.569 116.196 225.38 116.149 225.285 116.054C223.392 115.391 222.303 113.735 222.019 111.084C221.641 107.487 222.635 103.653 225.001 99.582C223.96 94.5647 223.439 91.062 223.439 89.074C223.061 89.1687 222.635 89.2633 222.161 89.358C221.783 89.5473 221.12 89.784 220.173 90.068C218.469 90.7307 217.286 91.346 216.623 91.914C216.055 92.6713 215.535 94.47 215.061 97.31C214.493 99.866 213.878 101.57 213.215 102.422C211.795 104.41 210.47 105.404 209.239 105.404C207.63 105.688 206.447 104.883 205.689 102.99C205.595 102.801 205.547 102.659 205.547 102.564C204.695 98.4933 205.311 94.8487 207.393 91.63C208.719 89.926 210.139 89.2633 211.653 89.642C212.6 90.0207 212.789 90.6833 212.221 91.63C212.127 91.8193 212.032 91.9613 211.937 92.056C209.287 95.0853 208.387 98.162 209.239 101.286C209.334 101.759 209.523 102.043 209.807 102.138C209.997 102.138 210.139 102.138 210.233 102.138C211.464 100.813 212.458 98.0673 213.215 93.902C213.215 93.7127 213.263 93.5233 213.357 93.334C214.02 91.8193 214.588 90.8253 215.061 90.352C215.819 89.5 217.807 88.5533 221.025 87.512C221.309 87.4173 221.499 87.37 221.593 87.37C221.783 87.2753 222.067 87.1807 222.445 87.086C223.013 86.802 223.392 86.5653 223.581 86.376C224.244 82.5893 225.143 79.7493 226.279 77.856C228.078 74.6373 230.303 73.028 232.953 73.028ZM233.805 76.436C233.427 76.3413 232.859 76.5307 232.101 77.004C230.303 78.2347 228.835 80.7907 227.699 84.672C230.255 82.968 232.007 81.4533 232.953 80.128C233.805 78.3293 234.089 77.0987 233.805 76.436ZM225.853 103.274C225.759 102.895 225.711 102.611 225.711 102.422C224.954 104.126 224.386 105.877 224.007 107.676C224.102 110.611 224.575 112.457 225.427 113.214C225.901 113.214 226.327 112.835 226.705 112.078C227.084 110.658 226.847 107.913 225.995 103.842C225.995 103.558 225.948 103.369 225.853 103.274ZM248.379 77.714C250.367 77.714 251.834 78.708 252.781 80.696C253.538 82.968 253.349 85.8553 252.213 89.358C251.361 91.4407 250.509 92.5767 249.657 92.766C248.71 92.9553 248.142 92.5293 247.953 91.488C247.953 91.0147 248.048 90.636 248.237 90.352C250.698 88.1747 251.834 85.6187 251.645 82.684C251.645 80.7907 250.935 79.6073 249.515 79.134C249.231 79.0393 249.042 78.992 248.947 78.992C247.338 79.1813 246.06 80.3647 245.113 82.542C243.598 86.802 243.693 92.624 245.397 100.008C247.48 98.2093 249.752 96.6 252.213 95.18C257.325 92.4347 261.538 91.0147 264.851 90.92C265.514 90.8253 265.94 91.062 266.129 91.63C266.129 91.8193 266.082 91.9613 265.987 92.056C265.608 92.2453 264.946 92.34 263.999 92.34C263.242 92.34 262.674 92.3873 262.295 92.482C255.668 94.186 250.178 97.3573 245.823 101.996C246.58 105.972 246.912 109.049 246.817 111.226C246.628 113.971 245.776 115.77 244.261 116.622C242.746 117.474 241.421 117.143 240.285 115.628C240.096 115.249 239.954 114.918 239.859 114.634C238.912 111.321 239.717 107.723 242.273 103.842C241.232 98.9193 240.616 95.7953 240.427 94.47C240.143 88.8847 240.474 85.0507 241.421 82.968C243.22 79.56 245.539 77.8087 248.379 77.714ZM242.841 107.392C242.841 107.392 242.841 107.25 242.841 106.966C242.746 106.682 242.652 106.54 242.557 106.54C241.326 109.664 241.137 112.267 241.989 114.35C242.936 112.551 243.22 110.232 242.841 107.392ZM270.229 83.962C270.892 83.962 271.129 84.388 270.939 85.24C270.845 85.524 270.797 85.7133 270.797 85.808C271.744 85.808 272.549 86.092 273.211 86.66C275.105 88.7427 275.389 91.488 274.063 94.896C272.359 98.2093 270.513 100.245 268.525 101.002C266.916 101.665 265.543 101.239 264.407 99.724C264.218 99.44 264.076 99.156 263.981 98.872C263.224 95.5587 263.934 91.914 266.111 87.938C267.437 85.666 268.667 84.388 269.803 84.104C269.993 84.0093 270.135 83.962 270.229 83.962ZM270.513 87.37C270.419 87.2753 270.324 87.1807 270.229 87.086V86.944C269.093 89.216 268.336 90.8253 267.957 91.772C267.2 94.612 266.916 96.5527 267.105 97.594C267.011 98.0673 267.2 98.3513 267.673 98.446C267.863 98.446 268.005 98.3987 268.099 98.304C270.466 96.7893 271.886 94.612 272.359 91.772C272.643 90.636 272.028 89.1687 270.513 87.37Z" fill="black"/>
</svg>
